<?xml version="1.0" encoding="UTF-8"?>
<svg id="Layer_2" data-name="Layer 2" xmlns="http://www.w3.org/2000/svg" viewBox="0 0 544.62 250.71">
  <defs>
    <style>
      .cls-1 {
        fill: #fff;
      }
    </style>
  </defs>
  <g id="tails">
    <g>
      <path class="cls-1" d="M81.15,91.16h-25.08c1.2,1.2,2.88,4.44,2.88,6.72,0,4.96-9.5,30.57-18.39,51.21-4.85,1.37-11.52,2.21-20.36,1.28-22.67-2.38-10.42-18.74-10.42-18.74,0,0-25.71,28.82,6.25,29.93,8.76.31,15.15-.34,19.7-1.26-7.6,18.62-31.49,79.97-33.65,81.91h25.44c-2.88-2.76-4.56-9-4.56-12.6,0-1.68,25.92-72.09,26.76-74.85,4.56-2.28,10.92-3.96,18.6-3.96,13.44,0,20.16,5.52,20.16,14.28,0,4.2-1.68,6.6-5.04,9h30.96c-2.88-3.6-6.12-10.32-9.6-18.12-10.08-22.56-20.64-51.6-23.64-64.8ZM73.95,140.6c-7.32,0-15.12,1.8-21.12,5.04,4.44-11.64,10.92-26.16,13.92-36.36,3.48,9.36,9,23.16,12.24,31.68-1.68-.24-3.36-.36-5.04-.36Z"/>
      <path class="cls-1" d="M152.91,164.24h-9.84v-57.12c0-6.24,1.32-11.64,7.2-15.96h-33.12c5.76,4.32,7.2,9.72,7.2,15.96v51c0,6.24-1.44,11.64-7.2,15.96h35.4c7.2,0,14.76.12,20.76,1.68l4.32-27c-7.2,13.56-15,15.48-24.72,15.48Z"/>
      <path class="cls-1" d="M222.27,164.24h-12.84v-27.36h1.32c10.8,0,20.4.84,24,10.32l1.32-26.88c-4.92,6.6-13.56,7.2-25.08,7.2h-1.56v-26.52h8.52c9.48,0,17.04,1.32,24,10.56l-3.48-21.96c-6.12,1.44-13.68,1.56-20.76,1.56h-34.2c5.76,4.32,7.2,9.72,7.2,15.96v51c0,6.24-1.44,11.64-7.2,15.96h38.52c7.08,0,14.64.12,20.76,1.68l4.32-27c-7.2,13.56-15.12,15.48-24.84,15.48Z"/>
      <path class="cls-1" d="M308.62,73.55l-3.48-21.96c-6.12,1.44-13.68,1.56-20.76,1.56h-6.52v-21.59c2.29-2.29,4.43-4.43,7.33-7.33v-11.78c-4.86-4.86-7.59-7.59-12.45-12.45-4.86,4.86-7.59,7.59-12.45,12.45v11.78c2.9,2.9,5.04,5.04,7.33,7.33v21.59h-7.35c-7.08,0-14.64-.12-20.76-1.56l-3.36,21.96c6.96-9.24,14.28-10.56,24-10.56h2.88v165.19l9.48,22.53,9.12-22.53V62.99h3c9.6,0,16.92,1.32,24,10.56Z"/>
      <path class="cls-1" d="M387.62,91.16h-33.12c5.76,4.32,7.2,9.72,7.2,15.96v19.32h-33.48v-19.32c0-6.24,1.32-11.64,7.2-15.96h-33.12c5.76,4.32,7.2,9.72,7.2,15.96v51c0,6.24-1.44,11.64-7.2,15.96h33.12c-5.88-4.32-7.2-9.72-7.2-15.96v-21.36h33.48v21.36c0,6.24-1.44,11.64-7.2,15.96h33.12c-5.88-4.32-7.2-9.72-7.2-15.96v-51c0-6.24,1.32-11.64,7.2-15.96Z"/>
      <path class="cls-1" d="M428.18,91.16h-33.12c5.76,4.32,7.2,9.72,7.2,15.96v51c0,6.24-1.44,11.64-7.2,15.96h33.12c-5.88-4.32-7.2-9.72-7.2-15.96v-51c0-6.24,1.32-11.64,7.2-15.96Z"/>
      <path class="cls-1" d="M513.66,242.21h30.96c-2.88-3.6-32.92-78.45-36.4-86.25-10.08-22.56-20.64-51.6-23.64-64.8h-25.08c1.2,1.2,2.88,4.44,2.88,6.72,0,5.52-11.76,36.6-21.36,57.96-3.96,8.88-7.68,16.08-10.08,18.24h25.44c-2.88-2.76-4.56-9-4.56-12.6,0-1.68.48-3.96,1.32-6.72,4.56-2.28,10.92-3.96,18.6-3.96,5.95,0,10.59,1.08,13.9,3.05,4.17,2.47,33.05,74.48,33.05,79.36,0,4.2-1.68,6.6-5.04,9ZM477.38,140.6c-7.32,0-15.12,1.8-21.12,5.04,4.44-11.64,10.92-26.16,13.92-36.36,3.48,9.36,9,23.16,12.24,31.68-1.68-.24-3.36-.36-5.04-.36Z"/>
    </g>
    <g>
      <path class="cls-1" d="M321.6,223.39h5.29c.36,3.06,2.52,4.5,5.76,4.5,2.99,0,4.79-1.08,4.79-3.17v-.14c0-1.91-1.37-2.81-6.33-3.74-6.23-1.15-8.64-3.53-8.64-7.52v-.22c0-4.5,3.89-7.45,9.65-7.45s9.72,2.84,10.15,8.13h-5.29c-.29-2.63-2.09-3.92-4.97-3.92s-4.28,1.3-4.28,3.1v.07c0,1.62.76,2.63,5.8,3.49,6.12,1.04,9.18,3.24,9.18,7.52v.22c0,4.75-4.14,7.88-10.19,7.88-6.52,0-10.58-3.24-10.91-8.75Z"/>
      <path class="cls-1" d="M350.51,231.67v-21.2h-7.27v-4.36h19.8v4.36h-7.24v21.2h-5.29Z"/>
      <path class="cls-1" d="M365.67,221.74v-15.62h5.33v15.51c0,3.89,1.69,5.98,5.4,5.98s5.4-2.05,5.4-6.01v-15.48h5.33v15.59c0,6.66-3.64,10.44-10.73,10.44s-10.73-3.74-10.73-10.4Z"/>
      <path class="cls-1" d="M390.86,231.67v-25.56h9.47c7.67,0,12.96,4.39,12.96,12.38v.79c0,7.96-5.29,12.38-12.96,12.38h-9.47ZM396.12,227.28h3.85c4.79,0,7.81-2.3,7.81-7.99v-.79c0-5.69-3.02-7.99-7.81-7.99h-3.85v16.77Z"/>
      <path class="cls-1" d="M416.64,231.67v-25.56h5.33v25.56h-5.33Z"/>
      <path class="cls-1" d="M425.32,219.29v-.79c0-7.49,4.82-12.85,12.49-12.85s12.45,5.36,12.45,12.85v.79c0,7.49-4.79,12.85-12.45,12.85s-12.49-5.36-12.49-12.85ZM444.76,219.29v-.79c0-5.15-2.48-8.42-6.95-8.42s-6.95,3.28-6.95,8.42v.79c0,5.11,2.52,8.39,6.95,8.39s6.95-3.28,6.95-8.39Z"/>
      <path class="cls-1" d="M451.89,223.39h5.29c.36,3.06,2.52,4.5,5.76,4.5,2.99,0,4.79-1.08,4.79-3.17v-.14c0-1.91-1.37-2.81-6.33-3.74-6.23-1.15-8.64-3.53-8.64-7.52v-.22c0-4.5,3.89-7.45,9.65-7.45s9.72,2.84,10.15,8.13h-5.29c-.29-2.63-2.09-3.92-4.97-3.92s-4.28,1.3-4.28,3.1v.07c0,1.62.76,2.63,5.8,3.49,6.12,1.04,9.18,3.24,9.18,7.52v.22c0,4.75-4.14,7.88-10.19,7.88-6.52,0-10.58-3.24-10.91-8.75Z"/>
    </g>
  </g>
</svg>